<?xml version="1.0" encoding="UTF-8" standalone="no"?>
<!-- Created with Inkscape (http://www.inkscape.org/) -->

<svg
   version="1.1"
   id="svg24097"
   xml:space="preserve"
   width="1066.6667"
   height="1066.6667"
   viewBox="0 0 1066.6667 1066.6667"
   sodipodi:docname="Jesus-silhouette-18.svg"
   inkscape:version="1.1.2 (b8e25be833, 2022-02-05)"
   xmlns:inkscape="http://www.inkscape.org/namespaces/inkscape"
   xmlns:sodipodi="http://sodipodi.sourceforge.net/DTD/sodipodi-0.dtd"
   xmlns="http://www.w3.org/2000/svg"
   xmlns:svg="http://www.w3.org/2000/svg"><defs
     id="defs24101"><clipPath
       clipPathUnits="userSpaceOnUse"
       id="clipPath24111"><path
         d="M 0,800 H 800 V 0 H 0 Z"
         id="path24109" /></clipPath></defs><sodipodi:namedview
     id="namedview24099"
     pagecolor="#ffffff"
     bordercolor="#666666"
     borderopacity="1.0"
     inkscape:pageshadow="2"
     inkscape:pageopacity="0.0"
     inkscape:pagecheckerboard="0"
     showgrid="false"
     inkscape:zoom="0.77906244"
     inkscape:cx="533.33337"
     inkscape:cy="533.33337"
     inkscape:window-width="1920"
     inkscape:window-height="1018"
     inkscape:window-x="-8"
     inkscape:window-y="-8"
     inkscape:window-maximized="1"
     inkscape:current-layer="g24103" /><g
     id="g24103"
     inkscape:groupmode="layer"
     inkscape:label="Jesus-silhouette-18"
     transform="matrix(1.3333333,0,0,-1.3333333,0,1066.6667)"><g
       id="g24105"><g
         id="g24107"
         clip-path="url(#clipPath24111)"><path
           d="m 672.467,532.771 -9.066,4.626 1.699,-10.6 z"
           style="fill:#f7a559;fill-opacity:1;fill-rule:nonzero;stroke:none"
           id="path24113" /><path
           d="m 647.039,545.749 -39.69,20.259 6.273,53.079 -35.101,-33.915 -28.471,6.569 -8.154,-11.866 z"
           style="fill:#fb6507;fill-opacity:1;fill-rule:nonzero;stroke:none"
           id="path24115" /><path
           d="m 543.754,656.738 -6.39,-3.642 1.69,-27.297 z"
           style="fill:#f55a00;fill-opacity:1;fill-rule:nonzero;stroke:none"
           id="path24117" /><path
           d="m 550.05,591.741 -9.017,2.08 0.863,-13.946 z"
           style="fill:#f55a00;fill-opacity:1;fill-rule:nonzero;stroke:none"
           id="path24119" /><path
           d="m 549.65,420.159 -2.165,28.839 34.082,21.702 47.49,-13.568 -5.744,19.798 -90.615,16.269 z"
           style="fill:#ffe157;fill-opacity:1;fill-rule:nonzero;stroke:none"
           id="path24121" /><path
           d="m 549.776,497.921 -0.254,1.405 -16.824,-6.127 90.615,-16.269 -3.752,12.935 45.539,36.932 -1.699,10.6 -3.881,1.982 -102.425,-37.296 z"
           style="fill:#fdb53f;fill-opacity:1;fill-rule:nonzero;stroke:none"
           id="path24123" /><path
           d="m 532.698,493.199 16.824,6.127 -8.227,45.4 58.424,-18.398 -42.624,-24.245 102.425,37.296 -12.481,6.37 -105.143,34.126 z"
           style="fill:#ff9b13;fill-opacity:1;fill-rule:nonzero;stroke:none"
           id="path24125" /><path
           d="m 564.168,226.85 -1.92,25.575 -2.663,-24.912 z"
           style="fill:#dff3bd;fill-opacity:1;fill-rule:nonzero;stroke:none"
           id="path24127" /><path
           d="m 564.479,222.726 -0.311,4.124 -4.583,0.663 z"
           style="fill:#c0eac6;fill-opacity:1;fill-rule:nonzero;stroke:none"
           id="path24129" /><path
           d="m 544.163,164.369 23.165,20.408 -2.849,37.949 -4.894,4.787 z"
           style="fill:#bee2ba;fill-opacity:1;fill-rule:nonzero;stroke:none"
           id="path24131" /><path
           d="m 474.113,364.308 c 9.442,5.182 15.254,13.442 14.63,27.154 l -5.352,23.615 -8.787,-13.922 -6.975,-23.237 c -3.965,-14.528 -1.649,-18.816 6.484,-13.61"
           style="fill:#ffdd4d;fill-opacity:1;fill-rule:nonzero;stroke:none"
           id="path24133" /><path
           d="m 484.866,417.414 28.105,10.746 -10.492,-47.573 c -4.126,-9.521 -7.85,-18.941 -11.069,-28.234 l 64.699,-18.185 -6.459,85.991 -16.952,73.04 z"
           style="fill:#ffdd4d;fill-opacity:1;fill-rule:nonzero;stroke:none"
           id="path24135" /><path
           d="m 495.93,282.293 6.802,16.518 -19.677,24.676 c -0.927,-4.083 -1.729,-8.134 -2.391,-12.151 -5.28,21.283 -16.26,33.716 -34.035,35.584 l -5.09,-19.669 32.683,-24.612 -9.238,-10.257 -26.925,21.416 -4.842,-18.709 6.07,4.244 23.154,-12.122 -41.138,-38.166 -4.29,-16.579 23.586,-0.82 32.776,34.871 -1.806,-35.947 39.344,-1.367 z"
           style="fill:#f0e096;fill-opacity:1;fill-rule:nonzero;stroke:none"
           id="path24137" /><path
           d="m 559.585,227.513 -39.718,49.809 1.117,-48.468 z"
           style="fill:#f0e096;fill-opacity:1;fill-rule:nonzero;stroke:none"
           id="path24139" /><path
           d="m 483.055,323.487 19.677,-24.676 15.757,38.257 1.378,-59.746 39.718,-49.809 2.663,24.912 -6.139,81.743 -64.699,18.185 c -3.386,-9.773 -6.211,-19.406 -8.355,-28.866"
           style="fill:#f6ee98;fill-opacity:1;fill-rule:nonzero;stroke:none"
           id="path24141" /><path
           d="m 482.451,592.418 c -9.107,0.068 -18.109,0.146 -26.967,0.216 l -21.49,-25.849 107.902,13.09 -0.863,13.946 -6.606,1.525 4.627,30.453 -1.69,27.297 -26.336,-15.012 c -3.476,3.073 -6.999,5.952 -10.565,8.65 l -32.197,-38.727 c 5.091,-4.361 9.841,-9.518 14.185,-15.589"
           style="fill:#fb6800;fill-opacity:1;fill-rule:nonzero;stroke:none"
           id="path24143" /><path
           d="m 432.043,222.545 8.556,9.101 -23.586,0.82 z"
           style="fill:#d3dfa7;fill-opacity:1;fill-rule:nonzero;stroke:none"
           id="path24145" /><path
           d="m 520.984,228.854 0.888,-38.481 -10.959,38.83 -39.344,1.367 -1.659,-33.016 63.985,-42.231 10.268,9.046 15.422,63.144 z"
           style="fill:#d3dfa7;fill-opacity:1;fill-rule:nonzero;stroke:none"
           id="path24147" /><path
           d="m 503.817,458.871 c -2.16,-1.019 -24.802,-15.008 -24.802,-15.008 l -26.161,29.04 -21.858,-5.556 c -1.855,-23.548 -2.955,-47.23 -3.336,-71.038 l 22.67,-31.691 c 3.516,5.906 5.568,13.57 3.689,23.725 L 453,419 l 28.048,3.623 -6.444,-21.468 8.787,13.922 -0.37,1.632 1.845,0.705 47.832,75.785 -47.722,-12.131 c 7.576,-7.881 20.384,-21.467 18.841,-22.197"
           style="fill:#feba1a;fill-opacity:1;fill-rule:nonzero;stroke:none"
           id="path24149" /><path
           d="m 396.801,458.655 -11.628,-2.956 10.942,-15.296 c 0.312,6.359 0.546,12.462 0.686,18.252"
           style="fill:#feba1a;fill-opacity:1;fill-rule:nonzero;stroke:none"
           id="path24151" /><path
           d="m 431.042,592.791 2.952,-26.006 21.49,25.849 c -8.287,0.065 -16.445,0.122 -24.442,0.157"
           style="fill:#f35c00;fill-opacity:1;fill-rule:nonzero;stroke:none"
           id="path24153" /><path
           d="m 468.266,608.007 32.197,38.727 c -24.436,18.491 -50.951,28.306 -79.099,31.315 l 5.797,-51.068 c 15.099,-2.828 29.064,-8.666 41.105,-18.974"
           style="fill:#f35c00;fill-opacity:1;fill-rule:nonzero;stroke:none"
           id="path24155" /><path
           d="m 464.727,94.389 27.089,23.865 -26.783,-17.751 z"
           style="fill:#b7b9a7;fill-opacity:1;fill-rule:nonzero;stroke:none"
           id="path24157" /><path
           d="m 465.033,100.503 26.783,17.751 37.376,32.928 -61.496,2.315 z"
           style="fill:#c2ba94;fill-opacity:1;fill-rule:nonzero;stroke:none"
           id="path24159" /><path
           d="m 467.696,153.497 61.496,-2.315 4.703,4.141 -63.985,42.231 z"
           style="fill:#d3c993;fill-opacity:1;fill-rule:nonzero;stroke:none"
           id="path24161" /><path
           d="m 409.023,209.564 8.562,-2.401 14.458,15.382 -15.03,9.921 z"
           style="fill:#d3c993;fill-opacity:1;fill-rule:nonzero;stroke:none"
           id="path24163" /><path
           d="m 445.729,559.565 52.918,-2.544 c 0.295,-13.838 2.035,-27.886 4.905,-42.093 l 29.146,-21.729 9.198,86.676 -107.902,-13.09 11.236,-8.377 z"
           style="fill:#ff8500;fill-opacity:1;fill-rule:nonzero;stroke:none"
           id="path24165" /><path
           d="m 396.749,482.04 -11.576,-26.341 11.628,2.956 c 0.207,8.538 0.208,16.396 -0.052,23.385"
           style="fill:#fe9400;fill-opacity:1;fill-rule:nonzero;stroke:none"
           id="path24167" /><path
           d="m 434.537,533.616 10.693,24.792 -11.236,8.377 -9.584,-21.808 z"
           style="fill:#fe9400;fill-opacity:1;fill-rule:nonzero;stroke:none"
           id="path24169" /><path
           d="m 504.069,512.418 c -25.768,-3.347 -49.486,-7.911 -70.204,-14.246 -1.107,-10.248 -2.057,-20.525 -2.869,-30.825 l 21.858,5.556 -1.571,1.744 c 0,0 27.989,12.464 28.367,11.955 0.108,-0.146 2.3,-2.385 5.326,-5.534 l 47.722,12.131 -29.146,21.729 c 0.169,-0.836 0.341,-1.673 0.517,-2.51"
           style="fill:#fe9400;fill-opacity:1;fill-rule:nonzero;stroke:none"
           id="path24171" /><path
           d="m 392.398,628.925 c 11.989,0.587 23.68,0.132 34.763,-1.944 l -5.797,51.068 c -15.223,1.628 -30.921,1.267 -47.027,-0.79 -23.324,-5.358 -42.043,-13.34 -56.209,-23.917 l 45.235,-33.792 c 7.028,6.122 16.746,9.201 29.035,9.375"
           style="fill:#f04f00;fill-opacity:1;fill-rule:nonzero;stroke:none"
           id="path24173" /><path
           d="m 399.222,592.762 34.772,-25.977 -2.952,26.006 c -10.939,0.047 -21.578,0.051 -31.82,-0.029"
           style="fill:#f04f00;fill-opacity:1;fill-rule:nonzero;stroke:none"
           id="path24175" /><path
           d="m 433.994,566.785 -34.772,25.977 c -17.569,-0.139 -33.982,-0.523 -48.794,-1.358 1.455,12.612 5.813,21.941 12.935,28.146 l -45.235,33.792 C 298.581,638.748 287.709,619.209 285.41,594.785 l 0.351,-27.646 z"
           style="fill:#f64e00;fill-opacity:1;fill-rule:nonzero;stroke:none"
           id="path24177" /><path
           d="m 431.957,346.307 c 2.432,3.359 11.885,8.125 17.821,17.417 l -22.2,0.122 c 0.006,-0.505 0.007,-1.008 0.013,-1.512 l -37.652,-5.255 c 0.202,2.326 0.402,4.65 0.601,6.969 l -55.384,0.304 c 2.036,-9.179 4.048,-18.129 6.073,-26.803 l 75.784,-105.083 4.29,16.579 -2.278,-2.112 0.251,38.407 13.941,9.749 4.842,18.709 -0.043,0.033 -20.094,-3.73 -0.337,14.504 23.31,3.131 0.644,-0.485 5.09,19.669 c -4.457,0.469 -9.342,0.273 -14.672,-0.613"
           style="fill:#fbb94f;fill-opacity:1;fill-rule:nonzero;stroke:none"
           id="path24179" /><path
           d="m 333.578,364.36 -11.731,0.065 11.781,-16.337 c 0.027,5.428 0.01,10.851 -0.05,16.272"
           style="fill:#fbb94f;fill-opacity:1;fill-rule:nonzero;stroke:none"
           id="path24181" /><path
           d="m 427.578,363.846 22.2,-0.122 c 0.188,0.294 0.372,0.591 0.552,0.894 l -22.67,31.691 c -0.174,-10.795 -0.197,-21.618 -0.082,-32.463"
           style="fill:#ffab15;fill-opacity:1;fill-rule:nonzero;stroke:none"
           id="path24183" /><path
           d="m 333.465,372.004 c 0.566,-2.568 1.13,-5.118 1.691,-7.652 l 55.384,-0.304 c 2.313,26.967 4.448,53.334 5.575,76.355 l -10.942,15.296 -63.326,-91.274 11.731,-0.065 c -0.029,2.548 -0.064,5.096 -0.113,7.644"
           style="fill:#ffab15;fill-opacity:1;fill-rule:nonzero;stroke:none"
           id="path24185" /><path
           d="m 396.381,489.019 c -11.554,14.085 -28.953,14.714 -49.06,9.112 l 37.852,-42.432 11.576,26.341 c -0.09,2.433 -0.211,4.764 -0.368,6.979"
           style="fill:#fd7700;fill-opacity:1;fill-rule:nonzero;stroke:none"
           id="path24187" /><path
           d="m 339.739,551.594 75.297,3.898 9.374,-10.515 9.584,21.808 -148.233,0.354 47.197,-52.908 c 3.288,12.871 5.613,25.351 6.781,37.363"
           style="fill:#fd7700;fill-opacity:1;fill-rule:nonzero;stroke:none"
           id="path24189" /><path
           d="m 333.628,348.088 -11.781,16.337 -49.883,-124.53 56.078,-2.873 c 3.272,37.307 5.405,74.262 5.586,111.066"
           style="fill:#f59959;fill-opacity:1;fill-rule:nonzero;stroke:none"
           id="path24191" /><path
           d="m 370.439,246.17 c -4.666,-3.049 -9.304,-6.613 -13.919,-10.606 l 60.493,-3.098 -75.784,105.083 c 8.526,-36.507 17.307,-68.125 29.21,-91.379"
           style="fill:#f59959;fill-opacity:1;fill-rule:nonzero;stroke:none"
           id="path24193" /><path
           d="m 271.964,239.895 52.783,-37.184 c 1.19,11.474 2.295,22.909 3.295,34.311 z"
           style="fill:#e0a468;fill-opacity:1;fill-rule:nonzero;stroke:none"
           id="path24195" /><path
           d="m 356.52,235.564 c -10.546,-9.123 -20.973,-20.498 -31.33,-33.166 l 29.833,-21.016 c 8.072,13.113 16.426,25.234 25.079,36.297 l 28.921,-8.115 7.99,22.902 z"
           style="fill:#e0a468;fill-opacity:1;fill-rule:nonzero;stroke:none"
           id="path24197" /><path
           d="m 282.931,445.086 38.916,-80.661 63.326,91.274 z"
           style="fill:#ff8800;fill-opacity:1;fill-rule:nonzero;stroke:none"
           id="path24199" /><path
           d="m 385.173,455.699 -37.852,42.432 c -6.835,-1.904 -13.981,-4.527 -21.318,-7.589 2.64,8.026 4.972,15.929 6.955,23.689 l -47.197,52.908 -2.83,-122.053 z"
           style="fill:#fd7400;fill-opacity:1;fill-rule:nonzero;stroke:none"
           id="path24201" /><path
           d="m 321.684,118.382 c 3.641,7.916 7.347,15.603 11.118,23.061 l -47.67,-12.364 z"
           style="fill:#c27660;fill-opacity:1;fill-rule:nonzero;stroke:none"
           id="path24203" /><path
           d="m 324.647,201.734 c 0.034,0.326 0.066,0.651 0.1,0.977 l -52.783,37.184 5.099,-108.455 8.069,-2.361 47.67,12.364 c 7.163,14.17 14.565,27.502 22.221,39.939 l -29.833,21.016 c -0.181,-0.221 -0.362,-0.441 -0.543,-0.664"
           style="fill:#d5815b;fill-opacity:1;fill-rule:nonzero;stroke:none"
           id="path24205" /><path
           d="m 285.761,567.139 -17.757,-26.636 14.372,4.732 -9.159,-83.184 -40.748,25.15 -20.293,-30.44 70.755,-11.675 z"
           style="fill:#fa6200;fill-opacity:1;fill-rule:nonzero;stroke:none"
           id="path24207" /><path
           d="m 285.41,594.785 c -0.581,-6.172 -0.618,-12.655 -0.106,-19.45 l -12.128,-1.154 12.585,-7.042 z"
           style="fill:#f03600;fill-opacity:1;fill-rule:nonzero;stroke:none"
           id="path24209" /><path
           d="m 282.931,445.086 -20.925,-16.596 3.198,-1.29 c 0.07,-18.433 -0.171,-36.899 -0.711,-55.396 l 57.354,-7.379 z"
           style="fill:#ff7200;fill-opacity:1;fill-rule:nonzero;stroke:none"
           id="path24211" /><path
           d="m 321.847,364.425 -57.354,7.379 c -1.017,-34.839 -3.108,-69.792 -6.26,-104.858 l 13.731,-27.051 z"
           style="fill:#fc741c;fill-opacity:1;fill-rule:nonzero;stroke:none"
           id="path24213" /><path
           d="m 258.233,266.946 c -0.949,-10.565 -2,-21.142 -3.141,-31.728 l 16.872,4.677 z"
           style="fill:#f26238;fill-opacity:1;fill-rule:nonzero;stroke:none"
           id="path24215" /><path
           d="m 255.092,235.218 c -2.525,-23.427 -5.516,-46.904 -8.968,-70.428 l 26.426,-32.028 4.513,-1.322 -5.099,108.455 z"
           style="fill:#db6747;fill-opacity:1;fill-rule:nonzero;stroke:none"
           id="path24217" /><path
           d="m 212.176,456.761 -4.201,-28.485 4.066,-9.467 9.669,25.942 40.296,-16.261 20.925,16.596 z"
           style="fill:#fa6800;fill-opacity:1;fill-rule:nonzero;stroke:none"
           id="path24219" /><path
           d="m 268.004,540.503 17.757,26.636 -12.585,7.042 -30.607,-2.913 -17.305,18.34 -6.433,-65.295 z"
           style="fill:#f64d00;fill-opacity:1;fill-rule:nonzero;stroke:none"
           id="path24221" /><path
           d="m 216.166,497.264 -3.99,-40.503 20.293,30.44 z"
           style="fill:#f64d00;fill-opacity:1;fill-rule:nonzero;stroke:none"
           id="path24223" /><path
           d="m 242.569,141.535 29.981,-8.773 -26.426,32.028 c -1.137,-7.747 -2.319,-15.497 -3.555,-23.255"
           style="fill:#ca5244;fill-opacity:1;fill-rule:nonzero;stroke:none"
           id="path24225" /><path
           d="m 197.358,453.001 14.818,3.76 -106.535,64.5 88.593,-60.987 z"
           style="fill:#e94c00;fill-opacity:1;fill-rule:nonzero;stroke:none"
           id="path24227" /><path
           d="m 197.288,619.261 v -1.148 l 2.55,-1.555 z"
           style="fill:#db1300;fill-opacity:1;fill-rule:nonzero;stroke:none"
           id="path24229" /><path
           d="m 199.838,616.558 -2.55,1.555 v -26.111 l 20.208,5.84 z"
           style="fill:#dd1c00;fill-opacity:1;fill-rule:nonzero;stroke:none"
           id="path24231" /><path
           d="m 216.166,497.264 -27.653,17.068 30.318,9.981 6.433,65.295 -7.768,8.234 -20.208,-5.84 v -28.195 l -92.849,-41.719 1.202,-0.827 106.535,-64.5 z"
           style="fill:#ed4100;fill-opacity:1;fill-rule:nonzero;stroke:none"
           id="path24233" /><path
           d="m 197.358,453.001 10.617,-24.725 4.201,28.485 z"
           style="fill:#f55e00;fill-opacity:1;fill-rule:nonzero;stroke:none"
           id="path24235" /></g></g></g></svg>
